<svg width="50" height="50" viewBox="0 0 50 50" fill="none" xmlns="http://www.w3.org/2000/svg"><g clip-path="url(#clip0_268_184)"><path fill-rule="evenodd" clip-rule="evenodd" d="M24.9255 0C11.1423 0 0 11.4583 0 25.6339C0 36.9651 7.13928 46.5568 17.0434 49.9516C18.2816 50.2068 18.7352 49.4 18.7352 48.7214C18.7352 48.1271 18.6944 46.0901 18.6944 43.9677C11.7607 45.4958 10.3168 40.912 10.3168 40.912C9.20255 37.9412 7.55153 37.1776 7.55153 37.1776C5.28214 35.6073 7.71684 35.6073 7.71684 35.6073C10.2342 35.7771 11.5551 38.2385 11.5551 38.2385C13.7832 42.1427 17.3735 41.0396 18.8179 40.3604C19.024 38.7052 19.6847 37.5594 20.3862 36.9229C14.8561 36.3286 9.03776 34.1219 9.03776 24.2755C9.03776 21.4745 10.0276 19.1828 11.5959 17.4005C11.3485 16.7641 10.4816 14.1323 11.8439 10.6099C11.8439 10.6099 13.9485 9.93073 18.6939 13.2411C20.7256 12.68 22.8208 12.3946 24.9255 12.3922C27.0301 12.3922 29.1755 12.6896 31.1566 13.2411C35.9025 9.93073 38.0071 10.6099 38.0071 10.6099C39.3694 14.1323 38.502 16.7641 38.2546 17.4005C39.8643 19.1828 40.8133 21.4745 40.8133 24.2755C40.8133 34.1219 34.9949 36.2859 29.4235 36.9229C30.3316 37.7292 31.1153 39.2568 31.1153 41.676C31.1153 45.1135 31.0745 47.8724 31.0745 48.7208C31.0745 49.4 31.5286 50.2068 32.7663 49.9521C42.6704 46.5563 49.8097 36.9651 49.8097 25.6339C49.8505 11.4583 38.6673 0 24.9255 0Z" fill="white" class="ModalTitle_Github__f1HHJ"></path></g><defs><clipPath id="clip0_268_184"><rect width="50" height="50" fill="white"></rect></clipPath></defs></svg>