<svg version="1.0" xmlns="http://www.w3.org/2000/svg"
 width="256.000000pt" height="256.000000pt" viewBox="0 0 256.000000 256.000000"
 preserveAspectRatio="xMidYMid meet">
<g transform="translate(0.000000,256.000000) scale(0.100000,-0.100000)"
fill="#fff" stroke="none">
<path d="M1160 2550 c-490 -46 -915 -378 -1084 -848 -92 -258 -93 -585 0 -844
40 -112 117 -254 189 -349 261 -347 703 -542 1130 -499 316 32 564 149 785
370 151 151 248 306 309 494 40 125 48 164 61 293 43 427 -152 867 -499 1128
-95 72 -237 149 -349 189 -156 56 -372 82 -542 66z m-315 -531 c106 -30 153
-157 94 -255 -67 -110 -234 -100 -294 17 -34 65 -6 176 54 215 49 33 88 39
146 23z m982 -460 c50 -25 75 -46 100 -82 63 -93 67 -117 69 -467 1 -173 0
-323 -3 -332 -4 -16 -19 -18 -143 -18 l-139 0 -3 283 c-3 277 -3 283 -27 324
-26 45 -76 73 -129 73 -48 0 -114 -41 -136 -85 -19 -37 -21 -60 -24 -317 l-3
-278 -140 0 -139 0 0 455 0 455 140 0 140 0 0 -55 0 -56 31 35 c66 75 148 107
262 103 65 -3 88 -9 144 -38z m-887 -444 l0 -455 -145 0 -145 0 0 455 0 455
145 0 145 0 0 -455z"/>
</g>
</svg>
